<svg width="22" height="19" viewBox="0 0 22 19" fill="none" xmlns="http://www.w3.org/2000/svg">
<path d="M19.3939 16.4242H21.3333V18.3636H0V16.4242H1.93939V1.87875C1.93939 1.62157 2.04156 1.37493 2.22341 1.19308C2.40527 1.01122 2.65191 0.909058 2.90909 0.909058H12.6061C12.8632 0.909058 13.1099 1.01122 13.2917 1.19308C13.4736 1.37493 13.5758 1.62157 13.5758 1.87875V16.4242H17.4545V8.66663H15.5152V6.72724H18.4242C18.6814 6.72724 18.9281 6.8294 19.1099 7.01126C19.2918 7.19311 19.3939 7.43976 19.3939 7.69694V16.4242ZM3.87879 2.84845V16.4242H11.6364V2.84845H3.87879ZM5.81818 8.66663H9.69697V10.606H5.81818V8.66663ZM5.81818 4.78785H9.69697V6.72724H5.81818V4.78785Z" fill="black"/>
</svg>
