<svg width="18" height="18" viewBox="0 0 18 18" fill="none" xmlns="http://www.w3.org/2000/svg">
<path d="M15.5152 15.765H1.93939V2.18927H15.5152M15.5152 0.249878H1.93939C1.42503 0.249878 0.931742 0.454206 0.568035 0.817913C0.204328 1.18162 0 1.67491 0 2.18927V15.765C0 16.2794 0.204328 16.7727 0.568035 17.1364C0.931742 17.5001 1.42503 17.7044 1.93939 17.7044H15.5152C16.0295 17.7044 16.5228 17.5001 16.8865 17.1364C17.2502 16.7727 17.4545 16.2794 17.4545 15.765V2.18927C17.4545 1.67491 17.2502 1.18162 16.8865 0.817913C16.5228 0.454206 16.0295 0.249878 15.5152 0.249878ZM13.0909 13.0984C13.0909 11.6438 10.1818 10.9165 8.72727 10.9165C7.27273 10.9165 4.36364 11.6438 4.36364 13.0984V13.8256H13.0909M8.72727 9.21957C9.30593 9.21957 9.86088 8.98971 10.2701 8.58053C10.6792 8.17136 10.9091 7.61641 10.9091 7.03776C10.9091 6.4591 10.6792 5.90415 10.2701 5.49498C9.86088 5.08581 9.30593 4.85594 8.72727 4.85594C8.14862 4.85594 7.59367 5.08581 7.18449 5.49498C6.77532 5.90415 6.54545 6.4591 6.54545 7.03776C6.54545 7.61641 6.77532 8.17136 7.18449 8.58053C7.59367 8.98971 8.14862 9.21957 8.72727 9.21957Z" fill="black"/>
</svg>
