<svg width="80" height="41" viewBox="0 0 80 41" fill="none" xmlns="http://www.w3.org/2000/svg">
<path d="M1.78084 38.4081H0.720597V40.7118H0V35.1958H1.78084C3.07975 35.1958 3.68789 35.9094 3.68789 36.8111C3.68789 37.6509 3.14859 38.4104 1.78084 38.4104V38.4081ZM1.78084 37.8139C2.6047 37.8139 2.95123 37.4261 2.95123 36.8089C2.95123 36.1916 2.60241 35.7878 1.78084 35.7878H0.720597V37.8139H1.78084Z" fill="white"/>
<path d="M10.4808 35.1935C11.7797 35.1935 12.397 35.914 12.397 36.8157C12.397 37.5201 12.0092 38.1924 11.0821 38.3989L12.4682 40.7095H11.6053L10.2903 38.454H9.42055V40.7095H8.69995V35.1935H10.4808ZM10.4808 35.7878H9.42055V37.8781H10.4808C11.2955 37.8781 11.6512 37.4352 11.6512 36.818C11.6512 36.2008 11.3024 35.7901 10.4808 35.7901V35.7878Z" fill="white"/>
<path d="M20.1283 40.7668C18.577 40.7668 17.3584 39.6035 17.3584 37.9492C17.3584 36.2948 18.577 35.1315 20.1283 35.1315C21.6797 35.1315 22.8983 36.2948 22.8983 37.9492C22.8983 39.6035 21.6866 40.7668 20.1283 40.7668ZM20.1283 40.1427C21.2918 40.1427 22.1639 39.296 22.1639 37.9492C22.1639 36.6023 21.2941 35.7556 20.1283 35.7556C18.9625 35.7556 18.0928 36.5954 18.0928 37.9492C18.0928 39.3029 18.9625 40.1427 20.1283 40.1427Z" fill="white"/>
<path d="M29.7464 38.4081H28.6862V40.7118H27.9656V35.1958H29.7464C31.0453 35.1958 31.6535 35.9094 31.6535 36.8111C31.6535 37.6509 31.1142 38.4104 29.7464 38.4104V38.4081ZM29.7464 37.8139C30.5703 37.8139 30.9168 37.4261 30.9168 36.8089C30.9168 36.1916 30.568 35.7878 29.7464 35.7878H28.6862V37.8139H29.7464Z" fill="white"/>
<path d="M39.6327 35.7808H37.3837V37.6256H39.394V38.2199H37.3837V40.1198H39.6327V40.7141H36.6631V35.1888H39.6327V35.7831V35.7808Z" fill="white"/>
<path d="M46.6231 35.1935C47.922 35.1935 48.5394 35.914 48.5394 36.8157C48.5394 37.5201 48.1515 38.1924 47.2244 38.3989L48.6105 40.7095H47.7476L46.4326 38.454H45.5629V40.7095H44.8423V35.1935H46.6231ZM46.6231 35.7878H45.5629V37.8781H46.6231C47.4378 37.8781 47.7935 37.4352 47.7935 36.818C47.7935 36.2008 47.4447 35.7901 46.6231 35.7901V35.7878Z" fill="white"/>
<path d="M53.4297 35.1935H57.1658V35.7786H55.6626V40.7095H54.942V35.7786H53.4297V35.1935Z" fill="white"/>
<path d="M62.1687 35.1935H62.8893V40.7095H62.1687V35.1935Z" fill="white"/>
<path d="M71.2015 35.7808H68.9525V37.6256H70.9629V38.2199H68.9525V40.1198H71.2015V40.7141H68.2319V35.1888H71.2015V35.7831V35.7808Z" fill="white"/>
<path d="M78.1593 40.7669C77.0508 40.7669 76.2683 40.1496 76.2522 39.2387H77.021C77.0692 39.6976 77.3928 40.1565 78.1616 40.1565C78.8592 40.1565 79.27 39.7596 79.27 39.2387C79.27 37.7518 76.2866 38.6995 76.2866 36.6505C76.2866 35.7395 77.0233 35.1223 78.1157 35.1223C79.208 35.1223 79.8575 35.7005 79.9447 36.538H79.1529C79.1048 36.1663 78.7582 35.7464 78.0835 35.7395C77.4891 35.7235 77.0233 36.0332 77.0233 36.6252C77.0233 38.0501 79.9998 37.1644 79.9998 39.2066C79.9998 39.989 79.3595 40.7669 78.1638 40.7669H78.1593Z" fill="white"/>
<path d="M0.0274414 11.7365V17.6059V17.6564L0.077929 17.6059L5.8427 11.7365L5.89319 11.787L11.7153 17.6059H23.7429L17.8702 11.7365H5.89319V5.8694H23.8163V0H0.0251465V5.8694H0.0274414V11.7365Z" fill="white"/>
<path d="M23.8185 23.4729H0.0273438V29.3423H23.8185V23.4729Z" fill="white"/>
<path d="M32.9523 0H27.0842V23.473V29.3401H50.8754V23.473H32.9523V0Z" fill="white"/>
<path d="M79.9955 0H72.5417L67.0683 6.98225L61.5927 0H54.1389L54.2651 0.162912L63.3391 11.7388L54.2651 23.3124V29.3401H56.9984L67.0683 16.4931L77.136 29.3401H79.8693V23.3124L70.7953 11.7388L79.8693 0.162912L79.9955 0Z" fill="white"/>
<path d="M0.0282405 17.6845V17.6562L0 17.6845H0.0282405Z" fill="white"/>
</svg>
