<svg width="10" height="13" viewBox="0 0 10 13" fill="none" xmlns="http://www.w3.org/2000/svg">
<path d="M2.53829 4.66667H1.92718C1.60302 4.66667 1.29215 4.79544 1.06294 5.02465C0.833725 5.25386 0.704956 5.56474 0.704956 5.88889V10.7778C0.704956 11.1019 0.833725 11.4128 1.06294 11.642C1.29215 11.8712 1.60302 12 1.92718 12H8.03829C8.36244 12 8.67332 11.8712 8.90253 11.642C9.13174 11.4128 9.26051 11.1019 9.26051 10.7778V5.88889C9.26051 5.56474 9.13174 5.25386 8.90253 5.02465C8.67332 4.79544 8.36244 4.66667 8.03829 4.66667H7.42718M4.98273 7.72222V1M4.98273 1L3.1494 2.83333M4.98273 1L6.81607 2.83333" stroke="black" stroke-width="1.22222" stroke-linecap="round" stroke-linejoin="round"/>
</svg>
