<svg width="24" height="24" viewBox="0 0 24 24" fill="none" xmlns="http://www.w3.org/2000/svg">
<g clip-path="url(#clip0_259_550)">
<path d="M21.3333 3.33337H6V9.33337H24V6.00004C24 5.2928 23.719 4.61452 23.219 4.11442C22.7189 3.61433 22.0406 3.33337 21.3333 3.33337Z" fill="#068241"/>
<path d="M6 9.33337H24V14.6667H6V9.33337Z" fill="#EEEEEE"/>
<path d="M6 20.6666H21.3333C22.0406 20.6666 22.7189 20.3857 23.219 19.8856C23.719 19.3855 24 18.7072 24 18V14.6666H6V20.6666Z" fill="#141414"/>
<path d="M2.66667 3.33337C1.95942 3.33337 1.28115 3.61433 0.781049 4.11442C0.280952 4.61452 0 5.2928 0 6.00004L0 18C0 18.7073 0.280952 19.3856 0.781049 19.8857C1.28115 20.3858 1.95942 20.6667 2.66667 20.6667H6V3.33337H2.66667Z" fill="#EC2028"/>
</g>
<defs>
<clipPath id="clip0_259_550">
<rect width="24" height="24" fill="white"/>
</clipPath>
</defs>
</svg>
