<svg width="24" height="24" viewBox="0 0 24 24" fill="none" xmlns="http://www.w3.org/2000/svg">
<path fill-rule="evenodd" clip-rule="evenodd" d="M19.3938 3.24377C19.883 3.24362 20.3543 3.42841 20.7131 3.7611C21.0718 4.0938 21.2916 4.54981 21.3283 5.03771L21.3331 5.18317V18.7589C21.3333 19.2482 21.1485 19.7195 20.8158 20.0782C20.4831 20.437 20.0271 20.6568 19.5392 20.6935L19.3938 20.6983H3.8786C3.38932 20.6985 2.91805 20.5137 2.55928 20.181C2.20051 19.8483 1.98075 19.3923 1.94406 18.9044L1.93921 18.7589V5.18317C1.93905 4.69388 2.12385 4.22262 2.45654 3.86385C2.78923 3.50508 3.24524 3.28532 3.73315 3.24862L3.8786 3.24377H19.3938ZM19.3938 5.18317H3.8786V18.7589H19.3938V5.18317ZM10.0265 7.74123L10.5288 7.96426L10.8565 8.11941L11.2318 8.30365L11.6488 8.51505L12.1045 8.75747L12.5962 9.02899L12.8541 9.17638L13.3564 9.47214L13.8161 9.75529L14.233 10.02L14.6015 10.2654L15.067 10.5854L15.4199 10.8404L15.5121 10.9083C15.6617 11.0196 15.7833 11.1644 15.867 11.3311C15.9507 11.4978 15.9943 11.6817 15.9943 11.8683C15.9943 12.0548 15.9507 12.2387 15.867 12.4054C15.7833 12.5721 15.6617 12.7169 15.5121 12.8283L15.1988 13.0561L14.7722 13.3548L14.427 13.5866L14.0342 13.8416L13.595 14.116L13.1111 14.4069L12.5933 14.7066L12.0997 14.98L11.643 15.2224L11.226 15.4358L10.8517 15.6181L10.2485 15.8974L10.0255 15.9943C9.85429 16.0681 9.66819 16.1009 9.48206 16.09C9.29593 16.0791 9.11492 16.0248 8.95347 15.9316C8.79202 15.8383 8.6546 15.7086 8.55216 15.5529C8.44972 15.3971 8.3851 15.2195 8.36345 15.0343L8.30721 14.4864L8.27618 14.1238L8.23545 13.4799L8.21315 12.9873L8.1986 12.4491C8.19688 12.3541 8.19558 12.2591 8.19472 12.164L8.19279 11.8683C8.19279 11.6675 8.19472 11.4736 8.1986 11.2864L8.21315 10.7483L8.23545 10.2566L8.26163 9.81347L8.29072 9.42462L8.36345 8.70317C8.38497 8.51778 8.44952 8.33998 8.55195 8.18397C8.65438 8.02796 8.79186 7.89805 8.95342 7.8046C9.11497 7.71115 9.29613 7.65676 9.48244 7.64575C9.66875 7.63475 9.85505 7.66745 10.0265 7.74123ZM10.619 10.1664L10.1962 9.95505L10.1681 10.4273L10.1467 10.9616L10.1341 11.5531L10.1322 11.8683L10.1341 12.1834L10.1467 12.774L10.1564 13.0484L10.1816 13.5526L10.1962 13.7805L10.617 13.5691L11.0893 13.3209L11.6081 13.0358L11.8835 12.8787L12.4178 12.5626L12.8968 12.2658L13.3196 11.9943L13.5096 11.8683L13.115 11.6064L12.6631 11.3214C12.406 11.1622 12.1464 11.007 11.8844 10.8559L11.61 10.6998L11.0922 10.4147L10.619 10.1664Z" fill="black"/>
</svg>
