<svg width="16" height="16" viewBox="0 0 16 16" fill="none" xmlns="http://www.w3.org/2000/svg">
<path d="M8.306 1.10698C8.21728 1.03781 8.108 1.00024 7.9955 1.00024C7.883 1.00024 7.77372 1.03781 7.685 1.10698L0.5 6.70948L1.1215 7.49548L2 6.81048V13C2.00053 13.265 2.10606 13.5191 2.29348 13.7065C2.4809 13.8939 2.73495 13.9995 3 14H13C13.2651 13.9995 13.5191 13.8939 13.7065 13.7065C13.8939 13.5191 13.9995 13.265 14 13V6.81498L14.8785 7.49998L15.5 6.71398L8.306 1.10698ZM9 13H7V8.99998H9V13ZM10 13V8.99998C9.99973 8.73485 9.89429 8.48064 9.70681 8.29317C9.51934 8.10569 9.26513 8.00025 9 7.99998H7C6.73486 8.00025 6.48066 8.10569 6.29319 8.29317C6.10571 8.48064 6.00026 8.73485 6 8.99998V13H3V6.03098L8 2.13598L13 6.03598V13H10Z" fill="black"/>
</svg>
