<svg width="12" height="10" viewBox="0 0 12 10" fill="none" xmlns="http://www.w3.org/2000/svg">
<path d="M0.508695 2.56934C0.508695 3.59215 1.33785 4.4213 2.36066 4.4213C3.38347 4.4213 4.21262 3.59215 4.21262 2.56934C4.21262 1.54653 3.38347 0.717374 2.36066 0.717374C1.33785 0.717374 0.508695 1.54653 0.508695 2.56934ZM8.14804 7.43074C8.14804 8.45355 8.97719 9.2827 10 9.2827C11.0228 9.2827 11.852 8.45355 11.852 7.43074C11.852 6.40793 11.0228 5.57877 10 5.57877C8.97719 5.57877 8.14804 6.40793 8.14804 7.43074ZM2.36066 2.91658H10V2.22209H2.36066V2.91658ZM2.36066 7.77798H10V7.08349H2.36066V7.77798Z" fill="black"/>
</svg>
