<svg width="20" height="20" viewBox="0 0 20 20" fill="none" xmlns="http://www.w3.org/2000/svg">
<g clip-path="url(#clip0_161_2378)">
<path d="M10.257 1.36667C10.1475 1.28125 10.0125 1.23486 9.87358 1.23486C9.73466 1.23486 9.59971 1.28125 9.49015 1.36667L0.617493 8.28512L1.38497 9.25574L2.46982 8.40984V16.0532C2.47047 16.3805 2.60079 16.6942 2.83223 16.9256C3.06368 17.1571 3.3774 17.2874 3.70471 17.2881H16.0536C16.3809 17.2874 16.6946 17.1571 16.926 16.9256C17.1575 16.6942 17.2878 16.3805 17.2885 16.0532V8.4154L18.3733 9.2613L19.1408 8.29068L10.257 1.36667ZM11.114 16.0532H8.64425V11.1136H11.114V16.0532ZM12.3489 16.0532V11.1136C12.3486 10.7862 12.2184 10.4723 11.9869 10.2408C11.7553 10.0093 11.4414 9.87906 11.114 9.87874H8.64425C8.31684 9.87906 8.00293 10.0093 7.77142 10.2408C7.5399 10.4723 7.40969 10.7862 7.40937 11.1136V16.0532H3.70471V7.44725L9.87914 2.63737L16.0536 7.45342V16.0532H12.3489Z" fill="black"/>
</g>
<defs>
<clipPath id="clip0_161_2378">
<rect width="19.7582" height="19.7582" fill="white"/>
</clipPath>
</defs>
</svg>
