<svg width="15" height="15" viewBox="0 0 15 15" fill="none" xmlns="http://www.w3.org/2000/svg">
<path d="M13.3726 6.31649C13.4268 6.74912 13.7745 7.10447 14.2105 7.10447C14.6465 7.10447 15.0044 6.74982 14.9606 6.31602C14.618 2.92225 12.0738 0.381067 8.67542 0.0392358C8.2416 -0.00440072 7.88695 0.353459 7.88695 0.789474C7.88695 1.22549 8.2423 1.57329 8.67497 1.6272C11.2117 1.94323 13.0556 3.78369 13.3726 6.31649Z" fill="black"/>
<path d="M7.89484 3.94737C7.89484 4.38338 8.25268 4.7213 8.68091 4.80333C9.54774 4.96936 10.0307 5.45235 10.1967 6.31921C10.2788 6.74743 10.6167 7.10526 11.0527 7.10526C11.4887 7.10526 11.8497 6.74943 11.793 6.31713C11.5572 4.52059 10.4795 3.44285 8.68299 3.20708C8.25068 3.15034 7.89484 3.51135 7.89484 3.94737ZM10.5964 9.03395C10.4447 8.89607 10.2453 8.82253 10.0404 8.82887C9.83555 8.8352 9.64113 8.92091 9.49824 9.06789C8.32576 10.2737 6.48984 10.888 5.29909 9.70026C4.10941 8.50957 4.72386 6.67441 5.92987 5.50026C6.07704 5.35747 6.16287 5.16302 6.16921 4.95806C6.17554 4.7531 6.10188 4.55372 5.96382 4.40211L3.04676 1.19447C2.90863 1.04239 2.71667 0.950135 2.51162 0.93731C2.30658 0.924486 2.10461 0.992099 1.94861 1.12579L0.235482 2.595C0.0989932 2.73199 0.0175272 2.9143 0.00653829 3.10737C-0.00530364 3.30474 -0.23109 7.98 3.39412 11.6068C6.5567 14.7687 10.5182 15 11.6093 15C11.7687 15 11.8666 14.9953 11.8927 14.9937C12.0857 14.9829 12.2679 14.901 12.4042 14.7639L13.8726 13.05C14.0064 12.8941 14.0742 12.6922 14.0615 12.4871C14.0488 12.2821 13.9567 12.0901 13.8048 11.9518L10.5964 9.03395Z" fill="black"/>
</svg>
