<svg width="19" height="20" viewBox="0 0 19 20" fill="none" xmlns="http://www.w3.org/2000/svg">
<path d="M2.76364 14.7287H4.14545V13.3469H14.2788V14.7287H15.6606V11.182C15.6606 10.8596 15.5992 10.5565 15.4764 10.2728C15.3535 9.98907 15.1846 9.73942 14.9697 9.52386V7.35901C14.9697 6.85234 14.7894 6.41876 14.4289 6.05826C14.0684 5.69775 13.6346 5.5172 13.1273 5.51658H10.1333C9.96444 5.51658 9.80323 5.53961 9.6497 5.58567C9.49616 5.63173 9.3503 5.70083 9.21212 5.79295C9.07394 5.70083 8.92808 5.63173 8.77454 5.58567C8.62101 5.53961 8.4598 5.51658 8.29091 5.51658H5.29697C4.7903 5.51658 4.35672 5.69714 3.99622 6.05826C3.63572 6.41937 3.45516 6.85295 3.45455 7.35901V9.52386C3.2396 9.7388 3.07071 9.98845 2.94788 10.2728C2.82505 10.5571 2.76364 10.8602 2.76364 11.182V14.7287ZM4.14545 11.9651V11.0439C4.14545 10.7828 4.23389 10.5642 4.41076 10.388C4.58764 10.2117 4.80627 10.1233 5.06667 10.1226H13.3576C13.6186 10.1226 13.8375 10.2111 14.0144 10.388C14.1913 10.5648 14.2794 10.7835 14.2788 11.0439V11.9651H4.14545ZM4.83636 8.74082V6.8984H8.52121V8.74082H4.83636ZM9.90303 8.74082V6.8984H13.5879V8.74082H9.90303ZM1.84242 19.3348C1.33576 19.3348 0.902174 19.1545 0.541673 18.794C0.181172 18.4335 0.000614141 17.9996 0 17.4923V2.75295C0 2.24628 0.180558 1.8127 0.541673 1.4522C0.902788 1.09169 1.33637 0.911137 1.84242 0.910522H16.5818C17.0885 0.910522 17.5224 1.09108 17.8835 1.4522C18.2446 1.81331 18.4249 2.24689 18.4242 2.75295V17.4923C18.4242 17.999 18.244 18.4329 17.8835 18.794C17.523 19.1551 17.0891 19.3354 16.5818 19.3348H1.84242ZM1.84242 17.4923H16.5818V2.75295H1.84242V17.4923Z" fill="black"/>
</svg>
