<svg width="20" height="21" viewBox="0 0 20 21" fill="none" xmlns="http://www.w3.org/2000/svg">
<path d="M11.8788 19.6922C11.5071 20.064 11.0465 20.2498 10.497 20.2498C9.94748 20.2498 9.48687 20.064 9.11516 19.6922L0.581824 11.1589C0.404046 10.9811 0.262471 10.771 0.157097 10.5286C0.051723 10.2862 -0.000640552 10.0276 5.91279e-06 9.75285V2.81952C5.91279e-06 2.28619 0.190067 1.82978 0.570188 1.45031C0.950309 1.07083 1.40671 0.880773 1.9394 0.880127H8.87273C9.14748 0.880127 9.40607 0.932814 9.64849 1.03819C9.89091 1.14356 10.101 1.28481 10.2788 1.46195L18.8121 10.0195C19.1838 10.3912 19.3697 10.848 19.3697 11.3897C19.3697 11.9314 19.1838 12.3878 18.8121 12.7589L11.8788 19.6922ZM10.497 18.3347L17.4303 11.4013L8.87273 2.81952H1.9394V9.75285L10.497 18.3347ZM4.36364 6.69831C4.76768 6.69831 5.11128 6.55706 5.39443 6.27455C5.67758 5.99205 5.81883 5.64845 5.81819 5.24376C5.81819 4.83972 5.67694 4.49645 5.39443 4.21395C5.11193 3.93144 4.76833 3.78986 4.36364 3.78922C3.9596 3.78922 3.61633 3.93079 3.33382 4.21395C3.05132 4.4971 2.90974 4.84037 2.9091 5.24376C2.9091 5.6478 3.05067 5.9914 3.33382 6.27455C3.61698 6.5577 3.96025 6.69896 4.36364 6.69831Z" fill="black"/>
</svg>
