<svg width="26" height="26" viewBox="0 0 26 26" fill="none" xmlns="http://www.w3.org/2000/svg">
<g opacity="0.5">
<path d="M13.5753 0.0219375C14.9931 0 16.4028 0.013 17.8108 0C17.8961 1.65831 18.4925 3.3475 19.7064 4.51994C20.9178 5.72163 22.6314 6.27169 24.2986 6.45775V10.8201C22.7362 10.7689 21.1664 10.4439 19.7486 9.77112C19.1311 9.49162 18.5559 9.13169 17.9928 8.76363C17.9855 11.9291 18.0058 15.0906 17.9725 18.2431C17.888 19.7576 17.3883 21.2647 16.5076 22.5128C15.0906 24.5903 12.6311 25.9447 10.1051 25.987C8.55563 26.0756 7.00781 25.6531 5.6875 24.8747C3.49944 23.5844 1.95975 21.2225 1.7355 18.6875C1.70725 18.1506 1.70292 17.6128 1.7225 17.0755C1.9175 15.0142 2.93719 13.0422 4.51994 11.7008C6.31394 10.1384 8.827 9.39412 11.18 9.8345C11.2019 11.4392 11.1378 13.0423 11.1378 14.6469C10.0628 14.2992 8.80669 14.3967 7.86744 15.0491C7.18026 15.5018 6.66096 16.1679 6.3895 16.9447C6.16525 17.4939 6.22944 18.1041 6.24244 18.6875C6.5 20.4653 8.2095 21.9594 10.0344 21.7977C11.2442 21.7847 12.4036 21.0828 13.0341 20.0549C13.2381 19.695 13.4664 19.3269 13.4786 18.9036C13.585 16.9658 13.5428 15.0361 13.5558 13.0983C13.5647 8.73112 13.5428 4.37612 13.5761 0.02275L13.5753 0.0219375Z" fill="white"/>
</g>
</svg>
