<svg width="24" height="24" viewBox="0 0 24 24" fill="none" xmlns="http://www.w3.org/2000/svg">
<path fill-rule="evenodd" clip-rule="evenodd" d="M9.94408 1.95239L11.1659 2.68548C12.7158 3.60129 13.9064 5.01903 14.5404 6.70391C14.7557 6.21906 15.0117 5.74876 15.2493 5.2736L16.2006 6.22488C18.3358 8.36015 20.3635 11.5602 20.3635 14.668C20.3635 18.8358 17.7938 21.4782 13.6823 21.9349L12.3344 22.0843L12.6292 20.7606C12.859 19.725 12.9007 19.0482 12.8522 18.574C12.794 17.9776 12.5109 17.5092 12.1579 17.0438C11.8204 16.5977 11.4859 16.1507 11.2183 15.6571C10.1177 16.5269 9.69099 17.3124 9.55426 17.9592C9.37971 18.7873 9.62699 19.6338 10.0789 20.5376L10.876 22.1318L9.10529 21.9349C6.60735 21.6576 4.14626 19.9888 3.17656 17.5538C2.16323 15.0065 2.87983 11.9238 6.15353 9.08645C8.32565 7.20427 9.47571 4.76354 9.94408 1.95239ZM11.2357 5.15239C10.4968 7.22754 9.07814 9.11845 7.42287 10.5526C4.60008 12.9992 4.34699 15.2498 4.97923 16.8363C5.44953 18.0193 6.4648 18.9919 7.6682 19.5437C7.52676 18.8903 7.5228 18.2146 7.65656 17.5597C7.97268 16.0605 9.05099 14.6554 11.1223 13.3609L12.1666 12.7083L12.5564 13.8768C12.8978 14.9008 13.6057 15.6251 14.1594 16.524C14.7683 17.5131 14.8847 18.6477 14.7606 19.7803C17.3012 19.1451 18.4241 17.2183 18.4241 14.668C18.4241 12.5134 17.1247 10.3994 15.835 8.74706C15.3036 9.93785 14.1836 10.3568 13.0907 10.9037V9.3347C13.0907 8.00718 12.5506 6.38876 11.2357 5.15336V5.15239Z" fill="black"/>
</svg>
