<svg width="31" height="31" viewBox="0 0 31 31" fill="none" xmlns="http://www.w3.org/2000/svg">
<path d="M8.19344 26.6432L8.70021 26.8946C10.8121 28.1513 13.1771 28.7378 15.5423 28.7378C22.9755 28.7378 29.0572 22.7054 29.0572 15.3324C29.0572 11.8136 27.6212 8.37842 25.0872 5.86487C22.5531 3.35132 19.1743 1.92705 15.5423 1.92705C8.10904 1.92705 2.0272 7.95947 2.11172 15.4163C2.11172 17.9297 2.87194 20.3595 4.13892 22.454L4.47677 22.9568L3.12538 27.9001L8.19344 26.6432Z" fill="#0CC229"/>
<path d="M26.5231 4.52432C23.6512 1.59194 19.6812 0 15.6267 0C7.01098 0 0.0845221 6.95403 0.168923 15.4162C0.168923 18.0973 0.929138 20.6947 2.19624 23.0405L0 31L8.19344 28.9054C10.4741 30.1622 13.0081 30.7487 15.5423 30.7487C24.0735 30.7487 31 23.7946 31 15.3326C31 11.2271 29.3949 7.37297 26.5231 4.52432ZM15.6267 28.1515C13.346 28.1515 11.0654 27.5651 9.12258 26.3921L8.61581 26.1407L3.71667 27.3974L4.98366 22.6218L4.64581 22.119C0.929138 16.1705 2.70301 8.29458 8.78473 4.60803C14.8664 0.921607 22.722 2.6811 26.4387 8.71352C30.1553 14.7459 28.3814 22.5379 22.2998 26.2244C20.3569 27.4811 17.9918 28.1515 15.6267 28.1515ZM23.0599 18.8516L22.1307 18.4326C22.1307 18.4326 20.7794 17.8461 19.9346 17.4272C19.8501 17.4272 19.7657 17.3433 19.6812 17.3433C19.4277 17.3433 19.2588 17.4272 19.0899 17.511C19.0899 17.511 19.0055 17.5947 17.8229 18.9353C17.7384 19.1028 17.5695 19.1867 17.4005 19.1867H17.316C17.2316 19.1867 17.0627 19.1028 16.9782 19.0191L16.5558 18.8516C15.6267 18.4326 14.782 17.9298 14.1062 17.2596C13.9373 17.0921 13.6839 16.9245 13.5149 16.757C12.9237 16.1705 12.3324 15.5001 11.9101 14.7461L11.8256 14.5785C11.7412 14.4947 11.7412 14.411 11.6567 14.2434C11.6567 14.0759 11.6567 13.9083 11.7412 13.8245C11.7412 13.8245 12.079 13.4055 12.3324 13.1542C12.5014 12.9866 12.5858 12.7353 12.7547 12.5677C12.9237 12.3164 13.0082 11.9812 12.9236 11.7299C12.8392 11.3109 11.8256 9.04875 11.5723 8.54609C11.4032 8.2947 11.2344 8.21098 10.981 8.12715H10.0518C9.88279 8.12715 9.71399 8.21098 9.54494 8.21098L9.46042 8.2947C9.2915 8.37854 9.12258 8.54609 8.95365 8.62981C8.78473 8.79748 8.70021 8.96492 8.53129 9.13259C7.93999 9.88664 7.60215 10.8082 7.60215 11.7299C7.60215 12.4001 7.77107 13.0704 8.02452 13.6569L8.10904 13.9083C8.86925 15.5001 9.88279 16.9245 11.2344 18.1812L11.5723 18.5163C11.8256 18.7677 12.079 18.9353 12.248 19.1865C14.0218 20.6948 16.049 21.7839 18.3297 22.3704C18.5831 22.4541 18.921 22.4541 19.1744 22.538H20.019C20.4414 22.538 20.9482 22.3704 21.2861 22.2029C21.5395 22.0353 21.7084 22.0353 21.8773 21.8678L22.0463 21.7001C22.2153 21.5325 22.3842 21.4488 22.5531 21.2813C22.722 21.1137 22.891 20.9462 22.9755 20.7785C23.1444 20.4434 23.2288 20.0244 23.3133 19.6056V19.0191C23.3133 19.0191 23.2288 18.9353 23.0599 18.8516Z" fill="#F4F4F4"/>
</svg>
