<svg width="34" height="22" viewBox="0 0 34 22" fill="none" xmlns="http://www.w3.org/2000/svg">
<path opacity="0.5" d="M17.1094 0H17.2986C19.0454 0.00587241 27.8966 0.0645968 30.2831 0.655753C31.0046 0.83617 31.662 1.18784 32.1897 1.67561C32.7174 2.16338 33.0969 2.77018 33.2902 3.43536C33.5048 4.1792 33.6557 5.1638 33.7577 6.17973L33.779 6.38331L33.8257 6.89225L33.8427 7.09583C33.9809 8.88495 33.9979 10.5605 34 10.9266V11.0734C33.9979 11.4532 33.9787 13.2423 33.8257 15.1058L33.8087 15.3113L33.7896 15.5149C33.6834 16.6346 33.5261 17.7464 33.2902 18.5646C33.0975 19.2301 32.7182 19.8372 32.1904 20.325C31.6626 20.8129 31.0049 21.1644 30.2831 21.3442C27.818 21.955 18.4483 21.998 17.1498 22H16.8481C16.1914 22 13.4755 21.9883 10.6278 21.8982L10.2665 21.8865L10.0816 21.8786L9.71823 21.8649L9.35483 21.8512C6.99594 21.7553 4.74967 21.6007 3.71473 21.3423C2.99323 21.1626 2.33566 20.8114 1.8079 20.3239C1.28015 19.8364 0.900731 19.2297 0.707669 18.5646C0.47178 17.7484 0.31452 16.6346 0.208263 15.5149L0.191262 15.3094L0.174261 15.1058C0.0693805 13.7794 0.0112629 12.4502 0 11.1204L0 10.8796C0.00425027 10.4588 0.0212513 9.00436 0.136009 7.39923L0.150884 7.19762L0.15726 7.09583L0.174261 6.89225L0.221014 6.38331L0.242265 6.17973C0.344272 5.1638 0.495156 4.17724 0.709794 3.43536C0.90253 2.76991 1.2818 2.16283 1.80958 1.67497C2.33736 1.18711 2.9951 0.835629 3.71686 0.655753C4.7518 0.401282 6.99806 0.244684 9.35696 0.14681L9.71823 0.133108L10.0838 0.121363L10.2665 0.115491L10.6299 0.101789C12.6524 0.0418404 14.6758 0.00855975 16.6993 0.00195756H17.1094V0ZM13.6009 6.28348V15.7146L22.435 11.001L13.6009 6.28348Z" fill="white"/>
</svg>
